# File exported by Houdini 18.0.531 (www.sidefx.com)
# 178 points
# 1056 vertices
# 352 primitives
# Bounds: [-0.303093493, 0.167769417, -0.301728189] to [0.304092556, 0.771310508, 0.301452816]
g 
v -0.220146105 0.259855211 0.0416131616
v -0.222590476 0.293601394 -0.111779273
v -0.193947792 0.237523332 -0.038730409
v -0.169477612 0.236622632 -0.103925385
v -0.118410617 0.191565305 -0.0436470881
v -0.158676952 0.273307443 -0.175978541
v -0.0938977748 0.262042671 -0.203467906
v -0.0828445032 0.20500046 -0.128914058
v -0.0437609628 0.309761703 -0.257692903
v -0.0210581888 0.169332504 -0.0563449636
v -0.0215090513 0.240117639 -0.202355355
v -0.298341215 0.41636613 -0.0384390801
v -0.279534429 0.477459222 -0.120915085
v -0.296744674 0.524319887 -0.0459475629
v -0.263433903 0.31800735 -0.0443738624
v -0.243917152 0.403514296 -0.166385353
v -0.248293906 0.440005332 -0.1756742
v -0.279021889 0.590872169 -0.0110484315
v -0.261944115 0.3742823 -0.12502262
v -0.223935544 0.490954995 -0.20460476
v -0.186691225 0.576575637 -0.216210902
v -0.255174547 0.558677673 -0.143304124
v -0.214007035 0.354024827 -0.185479134
v -0.187634289 0.409891158 -0.231418774
v -0.128178179 0.672492445 -0.191600412
v -0.137764677 0.337332219 -0.238062382
v -0.0979828686 0.405964285 -0.282967865
v -0.166131362 0.480641454 -0.255779803
v -0.0826888084 0.505572915 -0.292392224
v -0.115030311 0.560201585 -0.266954482
v -0.0255048703 0.460487723 -0.301728189
v -0.0905743316 0.627694547 -0.245271116
v 0.00426391698 0.520979285 -0.30030328
v -0.205993325 0.648801148 -0.135614544
v -0.25158453 0.626601875 -0.0712416172
v -0.1492607 0.70156163 -0.127694994
v -0.163935781 0.724947155 0.0232185051
v -0.177525163 0.710781336 -0.0568015389
v -0.116394319 0.732141376 -0.0924886838
v -0.0171597246 0.68133229 -0.219008714
v -0.0277849659 0.722891033 -0.165263042
v -0.0894568786 0.726601899 -0.13643226
v -0.0323622264 0.757477164 -0.0944862142
v -0.271630466 0.333650619 0.031523101
v -0.190370232 0.324635834 0.192592368
v -0.11672397 0.209148705 0.107964538
v -0.11784517 0.235301197 0.153803572
v -0.0965142176 0.268919051 0.210455194
v -0.138425648 0.200073779 0.0431885198
v -0.0479215942 0.217340603 0.166054159
v -0.0436900221 0.167769417 0.0222433768
v -0.285915077 0.386494786 0.0697843209
v -0.303093493 0.460197836 0.0364669524
v -0.23940663 0.322173387 0.118435018
v -0.227378026 0.372802407 0.174464032
v -0.254350901 0.393942237 0.146891505
v -0.274028331 0.468580067 0.135304123
v -0.292539448 0.528235018 0.064976573
v -0.255145311 0.564630985 0.134907722
v -0.174534023 0.254038602 0.130317807
v -0.227347806 0.414014071 0.194678545
v -0.226871103 0.460997701 0.202289164
v -0.224692881 0.53570044 0.196160257
v -0.255536467 0.617691576 0.0786921009
v -0.197203726 0.630513132 0.168829799
v -0.176837087 0.391950786 0.234901249
v -0.173841119 0.467006385 0.250258386
v -0.145082235 0.573212743 0.249051571
v -0.0684393719 0.633688986 0.245640099
v -0.114442557 0.332866371 0.24752669
v -0.0950611979 0.390848249 0.280607313
v -0.0944393054 0.486048877 0.28987667
v -0.0438812822 0.561299443 0.288514555
v -0.125249177 0.654148042 0.207303613
v -0.0142071191 0.419790566 0.300906003
v -0.0156217655 0.496499389 0.301452816
v -0.234702379 0.664845288 0.00904634502
v -0.187305391 0.69073683 0.0922811776
v -0.129895449 0.704917073 0.144622788
v -0.111771055 0.743606567 0.0730947554
v -0.0741161332 0.694833696 0.189436376
v 0.00931898877 0.713014722 0.181235209
v -0.0402579419 0.739709198 0.1331577
v -0.0873092189 0.761246681 -0.0201544296
v -0.00869598519 0.768829882 0.0586779341
v 0.00695456285 0.194762453 -0.133269057
v 0.0597595498 0.179988474 -0.0787026808
v 0.0447770841 0.232134297 -0.185817748
v 0.0856824517 0.215782374 -0.145162851
v 0.115955085 0.188602254 -0.0365536809
v 0.114781491 0.259460807 -0.189090252
v 0.0646325797 0.287160575 -0.236038804
v 0.168102041 0.314589858 -0.203693733
v 0.147794291 0.223693788 -0.106362619
v 0.176326618 0.274833947 -0.154411867
v 0.221746102 0.280224472 -0.0898469314
v 0.185447648 0.227179065 -0.0273453575
v 0.253884524 0.300742358 -0.0165505167
v 0.00751721719 0.367130518 -0.289186478
v 0.0457113236 0.475357115 -0.301209688
v -0.00775394449 0.640531421 -0.251474142
v 0.0555182025 0.41922304 -0.293814093
v -0.0103556681 0.58455956 -0.282706857
v 0.0848295316 0.547026277 -0.283015549
v 0.122057393 0.452524722 -0.279045135
v 0.107247807 0.358557701 -0.264628291
v 0.185818285 0.394712627 -0.231605321
v 0.156881928 0.529940784 -0.25352478
v 0.201973051 0.48069036 -0.228986621
v 0.206295192 0.562087476 -0.20360671
v 0.143745661 0.606978178 -0.231493548
v 0.239172131 0.44031027 -0.184410393
v 0.203545213 0.636329949 -0.15401721
v 0.244186252 0.586119592 -0.138550252
v 0.240433633 0.35845834 -0.153267831
v 0.261944532 0.335956782 -0.0794233605
v 0.28705585 0.436274976 -0.10410773
v 0.253818184 0.51663512 -0.163968652
v 0.283319294 0.547601104 -0.0821736678
v 0.250184149 0.617632568 -0.0900180563
v 0.288883775 0.370269835 -0.00862430036
v 0.304092556 0.476998985 -0.0249330383
v 0.283116996 0.584211469 -0.00715625472
v 0.0409912989 0.740001798 -0.133339256
v 0.0547924787 0.762070417 -0.0653594583
v 0.0692303926 0.705554247 -0.179068893
v 0.0191300437 0.771310508 -0.0202888064
v 0.0680946708 0.641258657 -0.242323399
v 0.138702273 0.678904116 -0.172564566
v 0.188592643 0.689188063 -0.0926722214
v 0.122703023 0.733760655 -0.0927706063
v 0.178527474 0.714194715 -0.0273421537
v 0.231816679 0.666341901 0.0211050678
v 0.236912161 0.650675118 -0.0540079623
v 0.0474761836 0.168749839 0.00707738893
v -0.0396313071 0.181501418 0.09889815
v -0.0120770568 0.322503209 0.267464429
v 0.130296439 0.199788779 0.0699137822
v 0.0403294638 0.176699787 0.074673757
v 0.0544849038 0.203244925 0.1408225
v 0.010957662 0.252467394 0.215461612
v 0.117798984 0.249694765 0.178112894
v 0.195100188 0.241463944 0.0524352714
v 0.196315169 0.27188623 0.126735255
v 0.223827466 0.265864164 0.00929114129
v 0.25542599 0.313650221 0.0642889515
v 0.0475456938 0.387725532 0.289524287
v 0.038152691 0.534008861 0.295825779
v 0.0289120562 0.610084653 0.265925348
v 0.0657762364 0.465718508 0.296555728
v 0.133988693 0.512406468 0.271535486
v 0.16337201 0.317050695 0.210440546
v 0.0882602036 0.32226339 0.25443697
v 0.126871407 0.419802517 0.27240026
v 0.10159792 0.608380198 0.250348657
v 0.181100428 0.379163384 0.229238763
v 0.20815742 0.469093323 0.223954275
v 0.185333997 0.575603724 0.220085591
v 0.231903285 0.346012205 0.153594658
v 0.214140788 0.596669018 0.169477969
v 0.227628946 0.620294869 0.135810137
v 0.27646783 0.386402816 0.097884804
v 0.251534611 0.426367819 0.167120486
v 0.259282708 0.534072578 0.148441568
v 0.298965454 0.437755823 0.0452859774
v 0.284595877 0.464158684 0.107007593
v 0.293633997 0.521855533 0.0582203977
v -0.0106899133 0.662659943 0.236227676
v 0.054876294 0.663825035 0.22933355
v 0.0849612057 0.68795073 0.195153266
v 0.148512706 0.666854739 0.179843858
v 0.0996628031 0.756567836 0.0181017816
v 0.154307365 0.714419365 0.0925858393
v 0.0764400512 0.739514232 0.121195368
v 0.19203867 0.658550441 0.138430014
v 0.171981081 0.715669274 0.0404472128
v 0.20707199 0.670149207 0.0954556465
v 0.263651878 0.600524247 0.0773557127
vn -0.715367794 -0.685402989 0.135911047
vn -0.734079242 -0.572306693 -0.36550346
vn -0.64101702 -0.758857131 -0.115034901
vn -0.54787451 -0.76722312 -0.333470076
vn -0.382273287 -0.913529277 -0.139036983
vn -0.518019736 -0.634703934 -0.573416352
vn -0.305014223 -0.678642869 -0.668139398
vn -0.271224618 -0.866951525 -0.418129325
vn -0.142668739 -0.516965628 -0.844033301
vn -0.0791136473 -0.98006475 -0.182247311
vn -0.068511501 -0.745476782 -0.66300118
vn -0.976468921 -0.170204028 -0.132434741
vn -0.922090113 0.023849709 -0.386239499
vn -0.972176731 0.177442506 -0.152926564
vn -0.858351588 -0.491815776 -0.146115378
vn -0.780335724 -0.239818916 -0.577549338
vn -0.809343457 -0.0954875723 -0.579521596
vn -0.919912755 0.390959203 -0.0301915854
vn -0.867382586 -0.304287761 -0.393772066
vn -0.734448671 0.0857216567 -0.6732288
vn -0.613199294 0.355980456 -0.705169857
vn -0.833467841 0.294688582 -0.467429101
vn -0.697181821 -0.374392778 -0.611365438
vn -0.612680137 -0.192664802 -0.766487658
vn -0.418833077 0.654307663 -0.629651129
vn -0.448014975 -0.423690796 -0.787253857
vn -0.318903565 -0.207103178 -0.924883187
vn -0.544214845 0.0388541482 -0.838045716
vn -0.269106954 0.115717903 -0.956133246
vn -0.383615136 0.303978711 -0.872030079
vn -0.0821229145 -0.0566762388 -0.995009363
vn -0.298828512 0.509987593 -0.806606591
vn 0.00845623668 0.171042249 -0.985227466
vn -0.679082751 0.581396699 -0.448134571
vn -0.823020697 0.515317261 -0.238924772
vn -0.502903402 0.7651577 -0.402022362
vn -0.540335834 0.838557422 0.0697037652
vn -0.585388184 0.789301038 -0.18526876
vn -0.379263639 0.883794725 -0.273981839
vn -0.0547846593 0.707027733 -0.70506072
vn -0.0879427493 0.829743564 -0.551173091
vn -0.28602621 0.848450601 -0.445331961
vn -0.109216765 0.94931519 -0.294741362
vn -0.892094135 -0.439968079 0.102937803
vn -0.617854416 -0.471300691 0.629389822
vn -0.379228145 -0.857777357 0.346992791
vn -0.384637147 -0.763519347 0.51874131
vn -0.311019331 -0.64785856 0.695374846
vn -0.454603881 -0.881072164 0.130564973
vn -0.146576136 -0.823287904 0.548372567
vn -0.148843423 -0.986633241 0.066336453
vn -0.936973035 -0.262254775 0.23087652
vn -0.993261933 -0.0289444048 0.112218156
vn -0.788156748 -0.481960714 0.382783115
vn -0.74881804 -0.328590125 0.575586617
vn -0.8458727 -0.24410066 0.47425124
vn -0.897153556 -0.00203179801 0.441714108
vn -0.957066596 0.201891571 0.207998261
vn -0.840148032 0.310712308 0.444532603
vn -0.577017605 -0.698553503 0.423171163
vn -0.751913607 -0.1776077 0.634886861
vn -0.747457683 -0.0250419937 0.663837373
vn -0.729633093 0.222355112 0.646679103
vn -0.832513094 0.488645703 0.261050344
vn -0.649675965 0.525782168 0.549066722
vn -0.577394485 -0.246629536 0.778324842
vn -0.562648416 -0.000426256913 0.826696098
vn -0.475166947 0.333516657 0.814237654
vn -0.221236125 0.529607832 0.818883479
vn -0.369267672 -0.452467322 0.81173557
vn -0.309881866 -0.249040931 0.917579353
vn -0.316297174 0.0548590384 0.947072625
vn -0.146072254 0.31824702 0.936686575
vn -0.413074404 0.599492788 0.685549378
vn -0.0483614244 -0.156734779 0.986455917
vn -0.0496026911 0.0692939535 0.996362329
vn -0.762401581 0.646539867 0.0270209555
vn -0.625234425 0.71926856 0.302877486
vn -0.425937653 0.772932291 0.470268965
vn -0.351927906 0.905391335 0.237514719
vn -0.228333697 0.746304333 0.625214815
vn 0.0254021417 0.813164473 0.581479371
vn -0.125087693 0.892802894 0.432730883
vn -0.279146314 0.958031476 -0.0652142614
vn -0.0230359435 0.981600404 0.189552233
vn 0.0137149403 -0.899767935 -0.436153024
vn 0.195101216 -0.946437657 -0.257276297
vn 0.150576845 -0.774522424 -0.614362717
vn 0.291866779 -0.832799137 -0.470382184
vn 0.377899557 -0.919826865 -0.105406404
vn 0.381837577 -0.690652192 -0.614165962
vn 0.203177929 -0.587915063 -0.782990694
vn 0.548446059 -0.500959754 -0.669511914
vn 0.482116848 -0.798518717 -0.360459656
vn 0.587423682 -0.640876651 -0.494176626
vn 0.724181473 -0.622177064 -0.297417283
vn 0.615331769 -0.783477187 -0.0867776722
vn 0.822496176 -0.565871894 -0.0573505908
vn 0.0217658281 -0.326509923 -0.94494307
vn 0.149772421 0.00725790393 -0.988693833
vn -0.0177359264 0.555273712 -0.831478536
vn 0.176983923 -0.164425462 -0.970381856
vn -0.0335726105 0.377207845 -0.925519943
vn 0.277770668 0.263995081 -0.923661172
vn 0.403913707 -0.0517224595 -0.913333714
vn 0.345811963 -0.363303304 -0.865115404
vn 0.609443545 -0.238531768 -0.756095946
vn 0.508960068 0.198109731 -0.837682605
vn 0.657527983 0.035767138 -0.752580762
vn 0.673263431 0.314072698 -0.669383705
vn 0.468593925 0.457395494 -0.755783677
vn 0.793918848 -0.105018012 -0.598885596
vn 0.662232816 0.552727759 -0.505904794
vn 0.80174911 0.378383279 -0.462627918
vn 0.784701407 -0.363002002 -0.502467215
vn 0.866720021 -0.42207697 -0.265795976
vn 0.935572207 -0.108876057 -0.335932702
vn 0.834915996 0.147543818 -0.530232072
vn 0.932624578 0.243944213 -0.265899926
vn 0.81460017 0.503601909 -0.287770301
vn 0.951171994 -0.30747214 -0.0270682033
vn 0.996753216 0.0284132846 -0.0753370672
vn 0.927037895 0.374517083 -0.0183737669
vn 0.131053805 0.886670113 -0.443442345
vn 0.181654394 0.962143183 -0.203180134
vn 0.22398892 0.770976841 -0.5961743
vn 0.0457795747 0.997795165 -0.0480521396
vn 0.226559415 0.562716007 -0.794997811
vn 0.452261388 0.687538147 -0.568111658
vn 0.62931031 0.712600052 -0.310112655
vn 0.402993053 0.864833176 -0.299433172
vn 0.581175148 0.809426427 -0.084049277
vn 0.763080478 0.642782748 0.0673686936
vn 0.775438368 0.607460082 -0.172300801
vn 0.154829159 -0.987616062 0.0253455341
vn -0.127834216 -0.939064741 0.319086194
vn -0.0490372628 -0.481343657 0.875159144
vn 0.422101796 -0.87709415 0.229207262
vn 0.131662741 -0.963343263 0.233740672
vn 0.17551741 -0.86584717 0.468510687
vn 0.0421760902 -0.704856813 0.708094656
vn 0.377080828 -0.722609162 0.579349697
vn 0.647296727 -0.742198229 0.173633918
vn 0.640559494 -0.646612167 0.414217442
vn 0.741593361 -0.670447588 0.0232205968
vn 0.835301578 -0.505683482 0.215767071
vn 0.161051407 -0.266058773 0.950407982
vn 0.139283791 0.223605603 0.964676321
vn 0.0850335732 0.4485811 0.889687836
vn 0.211767539 -0.0159638245 0.97718966
vn 0.433555663 0.145805299 0.889252663
vn 0.53788048 -0.498754174 0.679653525
vn 0.280454248 -0.481020212 0.83064127
vn 0.417175502 -0.161247537 0.894406974
vn 0.337931067 0.445022941 0.829311311
vn 0.598208129 -0.27821818 0.751492977
vn 0.681626976 0.00676659355 0.731668591
vn 0.606816411 0.350107878 0.713581324
vn 0.762889385 -0.402553916 0.505915105
vn 0.697682679 0.428620517 0.574041188
vn 0.738436222 0.489174783 0.464133769
vn 0.908432961 -0.2749542 0.31488052
vn 0.82222414 -0.137248442 0.552367985
vn 0.846174538 0.207525566 0.490837812
vn 0.984593511 -0.104515396 0.140186965
vn 0.934749007 -0.00900234189 0.35519436
vn 0.966471791 0.176134944 0.186838627
vn -0.0530102998 0.619072258 0.783542871
vn 0.187412158 0.624549985 0.758164823
vn 0.288871169 0.723461926 0.62702167
vn 0.491465926 0.641919255 0.588558435
vn 0.323233932 0.944133461 0.0642799139
vn 0.494476438 0.811512828 0.311352134
vn 0.244244233 0.889760852 0.385577887
vn 0.619035959 0.624988079 0.475588262
vn 0.562309384 0.817207456 0.126413092
vn 0.684348941 0.665337622 0.298315734
vn 0.86926055 0.427792072 0.247749731
g 
f 2//2 23//23 6//6
f 8//8 4//4 6//6
f 86//86 8//8 11//11
f 12//12 14//14 13//13
f 13//13 17//17 19//19
f 22//22 20//20 13//13
f 22//22 21//21 20//20
f 14//14 22//22 13//13
f 18//18 35//35 14//14
f 24//24 16//16 17//17
f 22//22 35//35 34//34
f 24//24 20//20 28//28
f 21//21 30//30 28//28
f 21//21 34//34 25//25
f 21//21 32//32 30//30
f 25//25 32//32 21//21
f 6//6 26//26 7//7
f 26//26 27//27 9//9
f 32//32 101//101 103//103
f 18//18 77//77 35//35
f 35//35 38//38 34//34
f 25//25 41//41 40//40
f 84//84 127//127 43//43
f 1//1 54//54 44//44
f 60//60 54//54 1//1
f 49//49 1//1 3//3
f 46//46 60//60 49//49
f 48//48 137//137 70//70
f 50//50 141//141 48//48
f 44//44 12//12 15//15
f 58//58 18//18 14//14
f 54//54 52//52 44//44
f 56//56 57//57 52//52
f 57//57 53//53 52//52
f 59//59 64//64 58//58
f 54//54 55//55 56//56
f 60//60 45//45 54//54
f 45//45 55//55 54//54
f 67//67 63//63 62//62
f 72//72 68//68 67//67
f 63//63 68//68 65//65
f 70//70 71//71 66//66
f 71//71 67//67 66//66
f 72//72 67//67 71//71
f 71//71 70//70 137//137
f 76//76 73//73 72//72
f 77//77 37//37 38//38
f 65//65 74//74 79//79
f 79//79 80//80 78//78
f 37//37 80//80 84//84
f 81//81 168//168 82//82
f 69//69 81//81 74//74
f 80//80 83//83 85//85
f 80//80 85//85 84//84
f 84//84 85//85 127//127
f 86//86 89//89 87//87
f 92//92 11//11 9//9
f 88//88 91//91 89//89
f 92//92 93//93 91//91
f 95//95 89//89 91//91
f 99//99 102//102 106//106
f 103//103 128//128 104//104
f 106//106 107//107 93//93
f 104//104 108//108 105//105
f 105//105 108//108 109//109
f 111//111 113//113 110//110
f 129//129 113//113 111//111
f 93//93 115//115 95//95
f 109//109 112//112 107//107
f 118//118 119//119 117//117
f 118//118 114//114 119//119
f 121//121 98//98 116//116
f 117//117 116//116 115//115
f 117//117 122//122 121//121
f 43//43 127//127 125//125
f 40//40 128//128 101//101
f 40//40 126//126 128//128
f 126//126 131//131 129//129
f 130//130 131//131 132//132
f 113//113 134//134 120//120
f 134//134 133//133 123//123
f 135//135 51//51 10//10
f 140//140 50//50 136//136
f 87//87 135//135 10//10
f 141//141 153//153 137//137
f 90//90 135//135 87//87
f 138//138 139//139 135//135
f 142//142 140//140 138//138
f 142//142 153//153 141//141
f 143//143 144//144 138//138
f 144//144 152//152 142//142
f 148//148 76//76 150//150
f 149//149 69//69 73//73
f 153//153 147//147 137//137
f 150//150 76//76 75//75
f 154//154 150//150 147//147
f 156//156 154//154 153//153
f 158//158 155//155 151//151
f 157//157 154//154 156//156
f 157//157 151//151 154//154
f 146//146 159//159 144//144
f 159//159 156//156 152//152
f 160//160 175//175 171//171
f 163//163 156//156 159//159
f 163//163 157//157 156//156
f 166//166 164//164 163//163
f 121//121 146//146 98//98
f 121//121 162//162 146//146
f 122//122 167//167 165//165
f 82//82 170//170 174//174
f 174//174 85//85 83//83
f 127//127 172//172 125//125
f 125//125 172//172 131//131
f 173//173 174//174 171//171
f 172//172 176//176 132//132
f 176//176 177//177 133//133
f 178//178 177//177 161//161
f 177//177 178//178 133//133
f 177//177 176//176 173//173
f 175//175 161//161 177//177
f 173//173 176//176 172//172
f 132//132 176//176 133//133
f 172//172 132//132 131//131
f 175//175 173//173 171//171
f 173//173 175//175 177//177
f 175//175 160//160 161//161
f 174//174 173//173 172//172
f 171//171 155//155 158//158
f 155//155 171//171 170//170
f 85//85 172//172 127//127
f 174//174 170//170 171//171
f 170//170 169//169 155//155
f 85//85 174//174 172//172
f 170//170 82//82 169//169
f 82//82 174//174 83//83
f 169//169 168//168 149//149
f 168//168 169//169 82//82
f 178//178 167//167 123//123
f 167//167 164//164 166//166
f 164//164 167//167 178//178
f 123//123 167//167 122//122
f 119//119 123//123 122//122
f 167//167 166//166 165//165
f 166//166 162//162 165//165
f 165//165 162//162 121//121
f 122//122 165//165 121//121
f 178//178 161//161 164//164
f 133//133 178//178 123//123
f 160//160 164//164 161//161
f 164//164 157//157 163//163
f 166//166 163//163 162//162
f 163//163 159//159 162//162
f 162//162 159//159 146//146
f 160//160 171//171 158//158
f 160//160 158//158 164//164
f 158//158 151//151 157//157
f 164//164 158//158 157//157
f 159//159 152//152 144//144
f 156//156 153//153 152//152
f 149//149 155//155 169//169
f 148//148 151//151 155//155
f 151//151 150//150 154//154
f 154//154 147//147 153//153
f 73//73 148//148 149//149
f 149//149 148//148 155//155
f 151//151 148//148 150//150
f 150//150 75//75 147//147
f 147//147 75//75 137//137
f 98//98 146//146 145//145
f 98//98 145//145 96//96
f 144//144 143//143 146//146
f 146//146 143//143 145//145
f 145//145 143//143 97//97
f 144//144 142//142 138//138
f 143//143 138//138 97//97
f 152//152 153//153 142//142
f 97//97 138//138 90//90
f 141//141 140//140 142//142
f 138//138 140//140 139//139
f 138//138 135//135 90//90
f 140//140 136//136 139//139
f 141//141 50//50 140//140
f 136//136 51//51 139//139
f 139//139 51//51 135//135
f 133//133 134//134 132//132
f 134//134 123//123 120//120
f 130//130 134//134 113//113
f 132//132 134//134 130//130
f 113//113 120//120 114//114
f 130//130 113//113 129//129
f 125//125 131//131 124//124
f 131//131 130//130 129//129
f 128//128 129//129 111//111
f 124//124 131//131 126//126
f 126//126 129//129 128//128
f 124//124 126//126 41//41
f 125//125 124//124 43//43
f 43//43 124//124 41//41
f 41//41 126//126 40//40
f 119//119 122//122 117//117
f 121//121 116//116 117//117
f 120//120 123//123 119//119
f 120//120 119//119 114//114
f 114//114 118//118 110//110
f 110//110 118//118 109//109
f 109//109 118//118 112//112
f 118//118 117//117 112//112
f 112//112 117//117 115//115
f 112//112 115//115 107//107
f 116//116 98//98 96//96
f 113//113 114//114 110//110
f 115//115 116//116 96//96
f 115//115 93//93 107//107
f 111//111 110//110 108//108
f 110//110 109//109 108//108
f 105//105 109//109 107//107
f 111//111 108//108 104//104
f 105//105 107//107 106//106
f 106//106 93//93 92//92
f 128//128 111//111 104//104
f 104//104 100//100 33//33
f 100//100 104//104 105//105
f 100//100 105//105 102//102
f 102//102 105//105 106//106
f 101//101 128//128 103//103
f 103//103 104//104 33//33
f 100//100 102//102 31//31
f 99//99 92//92 9//9
f 92//92 99//99 106//106
f 33//33 100//100 31//31
f 31//31 102//102 99//99
f 96//96 145//145 97//97
f 95//95 96//96 94//94
f 96//96 95//95 115//115
f 93//93 95//95 91//91
f 96//96 97//97 94//94
f 89//89 95//95 94//94
f 94//94 97//97 90//90
f 92//92 91//91 88//88
f 94//94 90//90 87//87
f 89//89 94//94 87//87
f 89//89 86//86 88//88
f 11//11 92//92 88//88
f 86//86 11//11 88//88
f 87//87 10//10 86//86
f 83//83 81//81 82//82
f 83//83 79//79 81//81
f 79//79 83//83 80//80
f 168//168 81//81 69//69
f 37//37 84//84 38//38
f 81//81 79//79 74//74
f 74//74 65//65 68//68
f 78//78 80//80 37//37
f 65//65 79//79 78//78
f 78//78 37//37 77//77
f 65//65 78//78 64//64
f 78//78 77//77 64//64
f 77//77 18//18 64//64
f 168//168 69//69 149//149
f 148//148 73//73 76//76
f 76//76 72//72 75//75
f 75//75 71//71 137//137
f 69//69 74//74 68//68
f 69//69 68//68 73//73
f 72//72 71//71 75//75
f 73//73 68//68 72//72
f 66//66 45//45 70//70
f 68//68 63//63 67//67
f 66//66 62//62 61//61
f 66//66 55//55 45//45
f 65//65 59//59 63//63
f 59//59 65//65 64//64
f 63//63 57//57 62//62
f 67//67 62//62 66//66
f 62//62 56//56 61//61
f 61//61 55//55 66//66
f 63//63 59//59 57//57
f 59//59 58//58 57//57
f 58//58 53//53 57//57
f 57//57 56//56 62//62
f 61//61 56//56 55//55
f 56//56 52//52 54//54
f 44//44 15//15 1//1
f 64//64 18//18 58//58
f 58//58 14//14 53//53
f 53//53 12//12 52//52
f 52//52 12//12 44//44
f 137//137 48//48 141//141
f 136//136 50//50 46//46
f 136//136 49//49 51//51
f 48//48 47//47 50//50
f 50//50 47//47 46//46
f 46//46 49//49 136//136
f 70//70 45//45 48//48
f 45//45 60//60 48//48
f 48//48 60//60 47//47
f 47//47 60//60 46//46
f 49//49 3//3 5//5
f 49//49 5//5 51//51
f 1//1 49//49 60//60
f 42//42 43//43 41//41
f 41//41 25//25 42//42
f 84//84 43//43 39//39
f 36//36 42//42 25//25
f 25//25 40//40 32//32
f 40//40 101//101 32//32
f 39//39 43//43 42//42
f 39//39 42//42 36//36
f 84//84 39//39 38//38
f 39//39 36//36 38//38
f 38//38 36//36 34//34
f 36//36 25//25 34//34
f 77//77 38//38 35//35
f 32//32 103//103 30//30
f 103//103 33//33 29//29
f 29//29 33//33 31//31
f 31//31 99//99 27//27
f 30//30 103//103 29//29
f 29//29 31//31 27//27
f 27//27 99//99 9//9
f 30//30 29//29 28//28
f 28//28 29//29 27//27
f 26//26 9//9 7//7
f 28//28 27//27 24//24
f 24//24 26//26 23//23
f 26//26 24//24 27//27
f 23//23 26//26 6//6
f 21//21 28//28 20//20
f 20//20 24//24 17//17
f 34//34 21//21 22//22
f 16//16 24//24 23//23
f 19//19 16//16 23//23
f 19//19 23//23 2//2
f 15//15 19//19 2//2
f 35//35 22//22 14//14
f 13//13 20//20 17//17
f 13//13 19//19 12//12
f 17//17 16//16 19//19
f 12//12 19//19 15//15
f 14//14 12//12 53//53
f 10//10 8//8 86//86
f 11//11 7//7 9//9
f 8//8 7//7 11//11
f 5//5 4//4 8//8
f 5//5 8//8 10//10
f 8//8 6//6 7//7
f 51//51 5//5 10//10
f 5//5 3//3 4//4
f 2//2 6//6 4//4
f 2//2 4//4 3//3
f 15//15 3//3 1//1
f 15//15 2//2 3//3
